<?xml version="1.0" encoding="UTF-8"?>
<svg id="Capa_1" xmlns="http://www.w3.org/2000/svg" version="1.1" viewBox="0 0 32 32">
  <!-- Generator: Adobe Illustrator 29.0.0, SVG Export Plug-In . SVG Version: 2.1.0 Build 186)  -->
  <defs>
    <style>
      .st0 {
        fill: #c85a00;
      }

      .st1 {
        fill: #fff;
      }

      .st2 {
        fill: #72072a;
      }
    </style>
  </defs>
  <path class="st0" d="M17.46,13.91c-.04.1-.09.2-.15.28-.4.52-1.14.63-1.66.23-.52-.4-.63-1.14-.23-1.67.08-.1.17-.18.26-.25-.49-.34-1.01-.67-1.57-.97-.8-.43-1.6.74-.89,1.3,0,0,.02.01.03.02.27.21.56.42.84.63.31.23.62.46.92.69.87.68,1.85,1.55,2.49,2.82.67,1.34,1.48,2.38,2.4,3.1-.08-.97-.32-2.71-1.01-4.84-.16-.17-.67-.7-1.43-1.36"/>
  <path class="st0" d="M17.94,22.28c-1.15-.81-2.97-1.97-5.22-2.96-1.17.93-2.64,1.49-4.01,1.84.07.03.15.08.22.13.52.4.63,1.14.23,1.67-.4.52-1.14.63-1.67.23-.52-.4-.63-1.14-.23-1.66.02-.03.04-.05.07-.07-.39.07-.76.11-1.1.15-.78.08-1.37.8-1.34,1.59,0,.01,0,.02,0,.03.03.89.91,1.43,1.75,1.11,3.75-1.44,8.68-1.9,11.3-2.05M12.34,21.75c-.52-.4-.63-1.14-.23-1.67.4-.52,1.14-.63,1.67-.23.52.4.63,1.14.23,1.66-.4.52-1.14.63-1.67.23"/>
  <path class="st0" d="M9.07,16.14c.4-.52,1.14-.63,1.67-.23.45.34.59.95.36,1.44,1.05.36,2.04.77,2.94,1.2-.37-.66-1.14-1.61-2.75-2.71-.53-.36-1.22-.42-1.85-.18,0,0-.02,0-.03.01-.27.11-.41.35-.41.59.02-.04.05-.09.08-.13"/>
  <path class="st0" d="M14.55,15.43s-.02,0-.03,0c-.69-.17-1.37-.26-2.03-.28,2.65,1.96,3.05,3.55,3.08,4.17,1.62.89,2.88,1.76,3.65,2.34.07-.11.15-.21.23-.32-.1-.07-.21-.15-.32-.23-.84-.66-1.83-1.74-2.72-3.49-.45-.89-1.12-1.58-1.87-2.19"/>
  <path class="st0" d="M19.03,10.42c-.16-.12-.27-.27-.35-.43-.08.33-.14.69-.17,1.07,1.3,2.55,1.96,4.89,2.29,6.65.25-2.13.35-4.87-.1-7.52,0,0,0,0,0,0-.4.52-1.14.63-1.67.23"/>
  <path class="st0" d="M17.97,6.79c-.44-.33-.85-.52-1.22-.62-.57-.15-1.04.54-.69,1,.57.76,1.08,1.51,1.53,2.26.16-.58.37-1.09.6-1.53.2-.39.11-.86-.22-1.11"/>
  <path class="st0" d="M11.82,8.34c-.17.47.06.98.51,1.11,2.17.64,4.13,1.98,5.51,3.13-.72-1.57-1.68-3.25-2.98-4.92-.82-1.05-2.54-.68-3.03.65,0,.01,0,.02-.01.03"/>
  <path class="st0" d="M11.42,18.79c-1.23-.47-2.56-.86-3.95-1.13-.49-.09-1.01.13-1.3.56-.02.02-.03.05-.05.07-.63.93.12,2.11,1.2,1.93,1.31-.23,2.86-.65,4.11-1.43"/>
  <path class="st0" d="M12.73,27.15c-.4.52-1.14.63-1.67.23,0,0,0,0-.02-.01l-2.45,1c-.55.22-.67.98-.2,1.28,0,0,0,0,.01,0,.86.55,5.31-2.03,9.44-5.05l-4.9,1.99c-.03.2-.1.39-.22.56"/>
  <path class="st0" d="M10.83,25.72c.4-.52,1.14-.63,1.67-.23,0,0,0,0,0,0l4.78-1.94c-2.78.19-7.43.71-10.74,2.1-.62.26-.87,1.04-.53,1.59,0,0,0,.01.01.02.25.41.77.56,1.23.37l3.36-1.37c.03-.19.1-.38.22-.54"/>
  <path class="st1" d="M15.64,14.42c.52.4,1.27.29,1.67-.23.07-.09.11-.19.15-.28-.5-.43-1.1-.92-1.79-1.4-.1.07-.19.15-.26.25-.4.52-.29,1.27.23,1.67"/>
  <path class="st1" d="M13.77,19.85c-.52-.4-1.27-.29-1.67.23-.4.52-.29,1.27.23,1.66.52.4,1.27.29,1.67-.23.4-.52.29-1.27-.23-1.67"/>
  <path class="st1" d="M7.48,23.19c.52.4,1.27.29,1.67-.23.4-.52.29-1.27-.23-1.67-.07-.05-.14-.09-.22-.13-.48.12-.95.22-1.38.29-.02.02-.05.05-.07.07-.4.52-.29,1.27.23,1.66"/>
  <path class="st1" d="M10.83,25.72c-.12.16-.19.35-.22.54l1.89-.77s0,0,0,0c-.52-.4-1.27-.29-1.67.23"/>
  <path class="st1" d="M12.73,27.15c.13-.17.2-.36.22-.56l-1.9.77s0,.01.02.01c.52.4,1.27.29,1.67-.23"/>
  <path class="st1" d="M10.74,15.9c-.52-.4-1.27-.29-1.67.23-.03.04-.05.08-.08.13,0,.25.14.5.42.57.58.15,1.14.32,1.68.51.23-.5.09-1.1-.36-1.44"/>
  <path class="st1" d="M18.68,9.99c.08.16.19.31.35.43.52.4,1.27.29,1.66-.23,0,0,0,0,0,0-.07-.41-.15-.82-.25-1.22-.17-.71-1.15-.74-1.43-.04-.13.32-.24.67-.33,1.05"/>
  <path class="st1" d="M15.17,2.54c.24.19.59.14.78-.11.18-.24.14-.59-.11-.78-.24-.19-.59-.14-.78.11-.19.24-.14.59.11.78"/>
  <path class="st1" d="M16.51,3.34c.25.19.59.14.78-.11.18-.24.14-.59-.11-.78-.24-.19-.59-.14-.78.11-.19.24-.14.59.11.78"/>
  <path class="st1" d="M17.93,4.42c.24.19.59.14.78-.11.18-.24.14-.59-.11-.78-.24-.19-.59-.14-.78.11-.19.24-.14.59.11.78"/>
  <path class="st1" d="M18.99,5.91c.24.19.59.14.78-.11.18-.24.14-.59-.11-.78-.25-.19-.59-.14-.78.11-.19.24-.14.59.11.78"/>
  <path class="st1" d="M15.57,4.03c.12.09.3.07.39-.05.09-.12.07-.3-.05-.39-.12-.09-.3-.07-.39.05-.09.12-.07.3.05.39"/>
  <path class="st1" d="M16.98,4.75c.12.09.3.07.39-.05.09-.12.07-.3-.05-.39-.12-.09-.3-.07-.39.05-.09.12-.07.3.05.39"/>
  <path class="st1" d="M15.67,4.91c-.09.12-.07.3.05.39.12.09.3.07.39-.05.09-.12.07-.3-.05-.39-.12-.09-.3-.07-.39.05"/>
  <path class="st2" d="M10.21,10.37c.12,1.57,1.09,2.57,2.26,3.48.03.03.07.05.11.08-2.04-.05-3.95.52-5.51,1.69-1.92,1.44-3.14,3.64-3.34,6.03-.31,3.76.75,6.55,3.23,8.49.24.19.49.37.76.54,1.45.94,5.58-1.49,8.77-3.68l-2.42,3.09c-.21.27-.18.65.07.85.25.2.63.14.85-.13l4.4-5.61c.82.05,1.98-.64,2.9-1.8.67-.86,1.06-1.79,1.12-2.53.72.35,1.61.18,2.11-.46.58-.74.43-1.82-.33-2.42-.2-.15-.42-.26-.65-.32.93-.75,2.19-1.1,3.37-.91.24-.22.5-.51.39-.82-.15-.44-.81-.33-1.23-.12-.98.5-1.94,1.05-2.87,1.64-.06.04-.11.09-.16.14-.49.01-.97.23-1.29.64-.27.35-.38.77-.34,1.19-.2-.01-.42.02-.66.1.78-4.46,1.23-13.49-4.13-17.69-2.13-1.67-3.26-.76-3.85.17-.89,1.4-3.74,6.18-3.57,8.34M9.41,15.67s.02,0,.03-.01c.63-.24,1.32-.19,1.85.18,1.61,1.1,2.39,2.05,2.75,2.71-.9-.43-1.89-.84-2.94-1.2-.54-.19-1.1-.36-1.68-.51-.29-.08-.43-.32-.42-.57,0-.24.14-.49.41-.59M6.12,18.3s.03-.05.05-.07c.3-.43.82-.65,1.3-.56,1.4.26,2.72.66,3.95,1.13-1.25.78-2.8,1.2-4.11,1.43-1.07.19-1.82-.99-1.2-1.93M4.89,23.22s0-.02,0-.03c-.03-.79.56-1.5,1.34-1.59.33-.04.7-.09,1.09-.15.44-.07.91-.17,1.38-.29,1.37-.35,2.84-.91,4.01-1.84,2.25.99,4.07,2.15,5.22,2.96-2.61.15-7.55.61-11.3,2.05-.84.32-1.72-.22-1.75-1.11M7.25,27.63c-.46.19-.98.04-1.23-.37,0,0,0-.01-.01-.02-.34-.55-.09-1.33.53-1.59,3.31-1.39,7.95-1.91,10.74-2.1l-4.78,1.94-1.89.77-3.36,1.37ZM8.41,29.65s0,0-.01,0c-.47-.31-.35-1.06.2-1.28l2.45-1,1.9-.78,4.9-1.99c-4.12,3.02-8.58,5.61-9.44,5.05M19.45,21.34c-.08.11-.15.21-.22.32-.77-.58-2.03-1.45-3.65-2.34-.04-.62-.43-2.22-3.08-4.17.66.02,1.34.11,2.03.28,0,0,.02,0,.03,0,.74.61,1.42,1.31,1.87,2.19.89,1.75,1.88,2.83,2.72,3.49.11.08.21.16.31.23M19.89,20.11c-.92-.72-1.72-1.77-2.4-3.1-.64-1.26-1.62-2.13-2.49-2.82-.3-.24-.61-.47-.92-.69-.29-.21-.57-.42-.84-.63,0,0-.02-.01-.03-.02-.71-.56.09-1.73.89-1.3.55.3,1.08.63,1.57.97.68.47,1.29.96,1.79,1.4.76.66,1.27,1.19,1.43,1.36.69,2.13.93,3.87,1.01,4.84M20.44,8.97c.1.4.18.81.25,1.22.45,2.65.35,5.39.1,7.52-.33-1.76-.99-4.1-2.29-6.65.03-.38.1-.74.17-1.07.09-.39.21-.74.33-1.05.28-.7,1.26-.67,1.43.04M17.6,9.43c-.45-.75-.96-1.5-1.53-2.26-.35-.47.12-1.16.69-1,.37.1.79.29,1.22.62.33.25.42.72.22,1.11-.22.44-.43.95-.6,1.53M19.66,5.03c.24.18.29.53.11.78-.19.24-.53.29-.78.11-.25-.19-.29-.53-.11-.78.18-.24.53-.29.78-.11M18.6,3.53c.24.19.29.53.11.78-.19.24-.53.29-.78.11-.24-.19-.29-.53-.11-.78.19-.24.53-.29.78-.11M17.32,4.3c.12.09.15.27.05.39-.09.12-.27.15-.39.05-.12-.09-.15-.27-.05-.39.09-.12.27-.15.39-.05M16.12,5.24c-.09.12-.27.15-.39.05-.12-.09-.15-.27-.05-.39.09-.12.27-.15.39-.05.12.09.15.27.05.39M17.18,2.46c.24.19.29.53.11.78-.19.24-.53.29-.78.11-.24-.18-.29-.53-.11-.78.19-.24.53-.29.78-.11M15.91,3.58c.12.09.15.27.05.39-.09.12-.27.15-.39.05-.12-.09-.15-.27-.05-.39.09-.12.27-.15.39-.05M14.86,7.66c1.29,1.67,2.26,3.35,2.98,4.92-1.38-1.14-3.34-2.49-5.51-3.13-.46-.13-.69-.64-.51-1.11,0-.01,0-.02.01-.03.49-1.33,2.21-1.7,3.03-.65M15.84,1.66c.24.19.29.53.11.78-.18.24-.53.29-.78.11-.24-.19-.29-.53-.11-.78.19-.24.53-.29.78-.11"/>
</svg>